<mxfile host="app.diagrams.net" modified="2023-10-03T21:40:22.587Z" agent="Mozilla/5.0 (Macintosh; Intel Mac OS X 10_15_7) AppleWebKit/537.36 (KHTML, like Gecko) Chrome/117.0.0.0 Safari/537.36" etag="sVeNdNlZW1uNTPUgNOKf" version="22.0.2" type="github" pages="3">
  <diagram name="Page-1" id="C0G1_l1UDHh4eET4bDQB">
    <mxGraphModel dx="906" dy="453" grid="1" gridSize="10" guides="1" tooltips="1" connect="1" arrows="1" fold="1" page="1" pageScale="1" pageWidth="827" pageHeight="1169" math="0" shadow="0">
      <root>
        <mxCell id="0" />
        <mxCell id="1" parent="0" />
        <mxCell id="lIeE3Y5SsQSJ4F84biwz-1" value="" style="whiteSpace=wrap;html=1;aspect=fixed;" parent="1" vertex="1">
          <mxGeometry x="200" y="200" width="180" height="180" as="geometry" />
        </mxCell>
        <mxCell id="lIeE3Y5SsQSJ4F84biwz-2" value="" style="endArrow=none;html=1;rounded=0;entryX=0.75;entryY=0;entryDx=0;entryDy=0;exitX=0.75;exitY=1;exitDx=0;exitDy=0;" parent="1" source="lIeE3Y5SsQSJ4F84biwz-1" target="lIeE3Y5SsQSJ4F84biwz-1" edge="1">
          <mxGeometry width="50" height="50" relative="1" as="geometry">
            <mxPoint x="320" y="260" as="sourcePoint" />
            <mxPoint x="370" y="210" as="targetPoint" />
          </mxGeometry>
        </mxCell>
        <mxCell id="lIeE3Y5SsQSJ4F84biwz-3" value="" style="endArrow=none;html=1;rounded=0;entryX=0.5;entryY=0;entryDx=0;entryDy=0;exitX=0.5;exitY=1;exitDx=0;exitDy=0;" parent="1" source="lIeE3Y5SsQSJ4F84biwz-1" target="lIeE3Y5SsQSJ4F84biwz-1" edge="1">
          <mxGeometry width="50" height="50" relative="1" as="geometry">
            <mxPoint x="320" y="260" as="sourcePoint" />
            <mxPoint x="370" y="210" as="targetPoint" />
          </mxGeometry>
        </mxCell>
        <mxCell id="lIeE3Y5SsQSJ4F84biwz-4" value="" style="endArrow=none;html=1;rounded=0;entryX=0.25;entryY=0;entryDx=0;entryDy=0;exitX=0.25;exitY=1;exitDx=0;exitDy=0;" parent="1" source="lIeE3Y5SsQSJ4F84biwz-1" target="lIeE3Y5SsQSJ4F84biwz-1" edge="1">
          <mxGeometry width="50" height="50" relative="1" as="geometry">
            <mxPoint x="320" y="260" as="sourcePoint" />
            <mxPoint x="370" y="210" as="targetPoint" />
          </mxGeometry>
        </mxCell>
        <mxCell id="lIeE3Y5SsQSJ4F84biwz-5" value="" style="endArrow=none;html=1;rounded=0;exitX=0;exitY=0.25;exitDx=0;exitDy=0;entryX=1;entryY=0.25;entryDx=0;entryDy=0;" parent="1" source="lIeE3Y5SsQSJ4F84biwz-1" target="lIeE3Y5SsQSJ4F84biwz-1" edge="1">
          <mxGeometry width="50" height="50" relative="1" as="geometry">
            <mxPoint x="320" y="260" as="sourcePoint" />
            <mxPoint x="370" y="210" as="targetPoint" />
          </mxGeometry>
        </mxCell>
        <mxCell id="lIeE3Y5SsQSJ4F84biwz-6" value="" style="endArrow=none;html=1;rounded=0;exitX=0;exitY=0.5;exitDx=0;exitDy=0;entryX=1;entryY=0.5;entryDx=0;entryDy=0;" parent="1" source="lIeE3Y5SsQSJ4F84biwz-1" target="lIeE3Y5SsQSJ4F84biwz-1" edge="1">
          <mxGeometry width="50" height="50" relative="1" as="geometry">
            <mxPoint x="320" y="260" as="sourcePoint" />
            <mxPoint x="370" y="210" as="targetPoint" />
          </mxGeometry>
        </mxCell>
        <mxCell id="lIeE3Y5SsQSJ4F84biwz-7" value="" style="endArrow=none;html=1;rounded=0;exitX=0;exitY=0.75;exitDx=0;exitDy=0;entryX=1;entryY=0.75;entryDx=0;entryDy=0;" parent="1" source="lIeE3Y5SsQSJ4F84biwz-1" target="lIeE3Y5SsQSJ4F84biwz-1" edge="1">
          <mxGeometry width="50" height="50" relative="1" as="geometry">
            <mxPoint x="320" y="260" as="sourcePoint" />
            <mxPoint x="370" y="210" as="targetPoint" />
          </mxGeometry>
        </mxCell>
        <mxCell id="lIeE3Y5SsQSJ4F84biwz-8" value="A" style="text;html=1;strokeColor=none;fillColor=none;align=center;verticalAlign=middle;whiteSpace=wrap;rounded=0;" parent="1" vertex="1">
          <mxGeometry x="170" y="170" width="60" height="30" as="geometry" />
        </mxCell>
        <mxCell id="lIeE3Y5SsQSJ4F84biwz-9" value="B" style="text;html=1;strokeColor=none;fillColor=none;align=center;verticalAlign=middle;whiteSpace=wrap;rounded=0;" parent="1" vertex="1">
          <mxGeometry x="220" y="170" width="60" height="30" as="geometry" />
        </mxCell>
        <mxCell id="lIeE3Y5SsQSJ4F84biwz-10" value="C" style="text;html=1;strokeColor=none;fillColor=none;align=center;verticalAlign=middle;whiteSpace=wrap;rounded=0;" parent="1" vertex="1">
          <mxGeometry x="260" y="170" width="60" height="30" as="geometry" />
        </mxCell>
        <mxCell id="lIeE3Y5SsQSJ4F84biwz-11" value="D" style="text;html=1;strokeColor=none;fillColor=none;align=center;verticalAlign=middle;whiteSpace=wrap;rounded=0;" parent="1" vertex="1">
          <mxGeometry x="300" y="170" width="60" height="30" as="geometry" />
        </mxCell>
        <mxCell id="lIeE3Y5SsQSJ4F84biwz-12" value="E" style="text;html=1;strokeColor=none;fillColor=none;align=center;verticalAlign=middle;whiteSpace=wrap;rounded=0;" parent="1" vertex="1">
          <mxGeometry x="350" y="170" width="60" height="30" as="geometry" />
        </mxCell>
        <mxCell id="lIeE3Y5SsQSJ4F84biwz-15" value="F" style="text;html=1;strokeColor=none;fillColor=none;align=center;verticalAlign=middle;whiteSpace=wrap;rounded=0;" parent="1" vertex="1">
          <mxGeometry x="160" y="190" width="60" height="30" as="geometry" />
        </mxCell>
        <mxCell id="lIeE3Y5SsQSJ4F84biwz-16" value="G" style="text;html=1;strokeColor=none;fillColor=none;align=center;verticalAlign=middle;whiteSpace=wrap;rounded=0;" parent="1" vertex="1">
          <mxGeometry x="160" y="230" width="60" height="30" as="geometry" />
        </mxCell>
        <mxCell id="lIeE3Y5SsQSJ4F84biwz-17" value="H" style="text;html=1;strokeColor=none;fillColor=none;align=center;verticalAlign=middle;whiteSpace=wrap;rounded=0;" parent="1" vertex="1">
          <mxGeometry x="160" y="275" width="60" height="30" as="geometry" />
        </mxCell>
        <mxCell id="lIeE3Y5SsQSJ4F84biwz-20" value="I" style="text;html=1;strokeColor=none;fillColor=none;align=center;verticalAlign=middle;whiteSpace=wrap;rounded=0;" parent="1" vertex="1">
          <mxGeometry x="160" y="320" width="60" height="30" as="geometry" />
        </mxCell>
        <mxCell id="lIeE3Y5SsQSJ4F84biwz-21" value="J" style="text;html=1;strokeColor=none;fillColor=none;align=center;verticalAlign=middle;whiteSpace=wrap;rounded=0;" parent="1" vertex="1">
          <mxGeometry x="160" y="360" width="60" height="30" as="geometry" />
        </mxCell>
        <mxCell id="mZZ3oU3MAKDqjdPzpFdO-1" value="" style="ellipse;whiteSpace=wrap;html=1;fillColor=#ffe6cc;strokeColor=#d79b00;" parent="1" vertex="1">
          <mxGeometry x="100" y="490" width="90" height="340" as="geometry" />
        </mxCell>
        <mxCell id="mZZ3oU3MAKDqjdPzpFdO-2" value="A" style="text;html=1;strokeColor=none;fillColor=none;align=center;verticalAlign=middle;whiteSpace=wrap;rounded=0;" parent="1" vertex="1">
          <mxGeometry x="115" y="520" width="60" height="30" as="geometry" />
        </mxCell>
        <mxCell id="mZZ3oU3MAKDqjdPzpFdO-3" value="B" style="text;html=1;strokeColor=none;fillColor=none;align=center;verticalAlign=middle;whiteSpace=wrap;rounded=0;" parent="1" vertex="1">
          <mxGeometry x="115" y="550" width="60" height="30" as="geometry" />
        </mxCell>
        <mxCell id="mZZ3oU3MAKDqjdPzpFdO-4" value="C" style="text;html=1;strokeColor=none;fillColor=none;align=center;verticalAlign=middle;whiteSpace=wrap;rounded=0;" parent="1" vertex="1">
          <mxGeometry x="115" y="580" width="60" height="30" as="geometry" />
        </mxCell>
        <mxCell id="mZZ3oU3MAKDqjdPzpFdO-5" value="D" style="text;html=1;strokeColor=none;fillColor=none;align=center;verticalAlign=middle;whiteSpace=wrap;rounded=0;" parent="1" vertex="1">
          <mxGeometry x="115" y="610" width="60" height="30" as="geometry" />
        </mxCell>
        <mxCell id="mZZ3oU3MAKDqjdPzpFdO-6" value="E" style="text;html=1;strokeColor=none;fillColor=none;align=center;verticalAlign=middle;whiteSpace=wrap;rounded=0;" parent="1" vertex="1">
          <mxGeometry x="115" y="640" width="60" height="30" as="geometry" />
        </mxCell>
        <mxCell id="mZZ3oU3MAKDqjdPzpFdO-7" value="F" style="text;html=1;strokeColor=none;fillColor=none;align=center;verticalAlign=middle;whiteSpace=wrap;rounded=0;" parent="1" vertex="1">
          <mxGeometry x="115" y="670" width="60" height="30" as="geometry" />
        </mxCell>
        <mxCell id="mZZ3oU3MAKDqjdPzpFdO-8" value="H" style="text;html=1;strokeColor=none;fillColor=none;align=center;verticalAlign=middle;whiteSpace=wrap;rounded=0;" parent="1" vertex="1">
          <mxGeometry x="115" y="720" width="60" height="30" as="geometry" />
        </mxCell>
        <mxCell id="mZZ3oU3MAKDqjdPzpFdO-9" value="I" style="text;html=1;strokeColor=none;fillColor=none;align=center;verticalAlign=middle;whiteSpace=wrap;rounded=0;" parent="1" vertex="1">
          <mxGeometry x="115" y="750" width="60" height="30" as="geometry" />
        </mxCell>
        <mxCell id="mZZ3oU3MAKDqjdPzpFdO-10" value="J" style="text;html=1;strokeColor=none;fillColor=none;align=center;verticalAlign=middle;whiteSpace=wrap;rounded=0;" parent="1" vertex="1">
          <mxGeometry x="115" y="780" width="60" height="30" as="geometry" />
        </mxCell>
        <mxCell id="mZZ3oU3MAKDqjdPzpFdO-11" value="" style="ellipse;whiteSpace=wrap;html=1;fillColor=#d5e8d4;strokeColor=#82b366;" parent="1" vertex="1">
          <mxGeometry x="414" y="485" width="90" height="340" as="geometry" />
        </mxCell>
        <mxCell id="mZZ3oU3MAKDqjdPzpFdO-12" value="Alyssa" style="text;html=1;strokeColor=none;fillColor=none;align=center;verticalAlign=middle;whiteSpace=wrap;rounded=0;" parent="1" vertex="1">
          <mxGeometry x="429" y="520" width="60" height="30" as="geometry" />
        </mxCell>
        <mxCell id="mZZ3oU3MAKDqjdPzpFdO-13" value="Bo" style="text;html=1;strokeColor=none;fillColor=none;align=center;verticalAlign=middle;whiteSpace=wrap;rounded=0;" parent="1" vertex="1">
          <mxGeometry x="430" y="550" width="60" height="30" as="geometry" />
        </mxCell>
        <mxCell id="mZZ3oU3MAKDqjdPzpFdO-14" value="Cathy" style="text;html=1;strokeColor=none;fillColor=none;align=center;verticalAlign=middle;whiteSpace=wrap;rounded=0;" parent="1" vertex="1">
          <mxGeometry x="430" y="580" width="60" height="30" as="geometry" />
        </mxCell>
        <mxCell id="mZZ3oU3MAKDqjdPzpFdO-15" value="Dominic" style="text;html=1;strokeColor=none;fillColor=none;align=center;verticalAlign=middle;whiteSpace=wrap;rounded=0;" parent="1" vertex="1">
          <mxGeometry x="430" y="610" width="60" height="30" as="geometry" />
        </mxCell>
        <mxCell id="mZZ3oU3MAKDqjdPzpFdO-16" value="Ece" style="text;html=1;strokeColor=none;fillColor=none;align=center;verticalAlign=middle;whiteSpace=wrap;rounded=0;" parent="1" vertex="1">
          <mxGeometry x="429" y="640" width="60" height="30" as="geometry" />
        </mxCell>
        <mxCell id="mZZ3oU3MAKDqjdPzpFdO-17" value="Fiona" style="text;html=1;strokeColor=none;fillColor=none;align=center;verticalAlign=middle;whiteSpace=wrap;rounded=0;" parent="1" vertex="1">
          <mxGeometry x="430" y="670" width="60" height="30" as="geometry" />
        </mxCell>
        <mxCell id="mZZ3oU3MAKDqjdPzpFdO-18" value="Grace" style="text;html=1;strokeColor=none;fillColor=none;align=center;verticalAlign=middle;whiteSpace=wrap;rounded=0;" parent="1" vertex="1">
          <mxGeometry x="430" y="690" width="60" height="30" as="geometry" />
        </mxCell>
        <mxCell id="mZZ3oU3MAKDqjdPzpFdO-19" value="G" style="text;html=1;strokeColor=none;fillColor=none;align=center;verticalAlign=middle;whiteSpace=wrap;rounded=0;" parent="1" vertex="1">
          <mxGeometry x="115" y="690" width="60" height="30" as="geometry" />
        </mxCell>
        <mxCell id="mZZ3oU3MAKDqjdPzpFdO-20" value="Hao" style="text;html=1;strokeColor=none;fillColor=none;align=center;verticalAlign=middle;whiteSpace=wrap;rounded=0;" parent="1" vertex="1">
          <mxGeometry x="429" y="720" width="60" height="30" as="geometry" />
        </mxCell>
        <mxCell id="mZZ3oU3MAKDqjdPzpFdO-21" value="Iris" style="text;html=1;strokeColor=none;fillColor=none;align=center;verticalAlign=middle;whiteSpace=wrap;rounded=0;" parent="1" vertex="1">
          <mxGeometry x="429" y="750" width="60" height="30" as="geometry" />
        </mxCell>
        <mxCell id="mZZ3oU3MAKDqjdPzpFdO-22" value="Jiaqi" style="text;html=1;strokeColor=none;fillColor=none;align=center;verticalAlign=middle;whiteSpace=wrap;rounded=0;" parent="1" vertex="1">
          <mxGeometry x="429" y="780" width="60" height="30" as="geometry" />
        </mxCell>
        <mxCell id="mZZ3oU3MAKDqjdPzpFdO-23" value="" style="endArrow=classic;html=1;rounded=0;" parent="1" edge="1">
          <mxGeometry width="50" height="50" relative="1" as="geometry">
            <mxPoint x="220" y="790" as="sourcePoint" />
            <mxPoint x="400" y="790" as="targetPoint" />
          </mxGeometry>
        </mxCell>
        <mxCell id="mZZ3oU3MAKDqjdPzpFdO-24" value="" style="endArrow=classic;html=1;rounded=0;" parent="1" edge="1">
          <mxGeometry width="50" height="50" relative="1" as="geometry">
            <mxPoint x="220" y="764.5" as="sourcePoint" />
            <mxPoint x="400" y="764.5" as="targetPoint" />
          </mxGeometry>
        </mxCell>
        <mxCell id="mZZ3oU3MAKDqjdPzpFdO-25" value="" style="endArrow=classic;html=1;rounded=0;" parent="1" edge="1">
          <mxGeometry width="50" height="50" relative="1" as="geometry">
            <mxPoint x="220" y="734.5" as="sourcePoint" />
            <mxPoint x="400" y="734.5" as="targetPoint" />
          </mxGeometry>
        </mxCell>
        <mxCell id="mZZ3oU3MAKDqjdPzpFdO-26" value="" style="endArrow=classic;html=1;rounded=0;" parent="1" edge="1">
          <mxGeometry width="50" height="50" relative="1" as="geometry">
            <mxPoint x="220" y="704.5" as="sourcePoint" />
            <mxPoint x="400" y="704.5" as="targetPoint" />
          </mxGeometry>
        </mxCell>
        <mxCell id="mZZ3oU3MAKDqjdPzpFdO-33" value="&lt;b&gt;S1&lt;/b&gt;" style="text;html=1;strokeColor=none;fillColor=none;align=center;verticalAlign=middle;whiteSpace=wrap;rounded=0;" parent="1" vertex="1">
          <mxGeometry x="110" y="440" width="60" height="30" as="geometry" />
        </mxCell>
        <mxCell id="mZZ3oU3MAKDqjdPzpFdO-34" value="&lt;b&gt;S2&lt;/b&gt;" style="text;html=1;strokeColor=none;fillColor=none;align=center;verticalAlign=middle;whiteSpace=wrap;rounded=0;" parent="1" vertex="1">
          <mxGeometry x="429" y="440" width="60" height="30" as="geometry" />
        </mxCell>
        <mxCell id="mZZ3oU3MAKDqjdPzpFdO-35" value="&lt;b&gt;&lt;font style=&quot;font-size: 13px;&quot;&gt;Bijective Function&lt;br&gt;(one to one)&lt;br&gt;&lt;/font&gt;&lt;/b&gt;" style="text;html=1;strokeColor=none;fillColor=none;align=center;verticalAlign=middle;whiteSpace=wrap;rounded=0;" parent="1" vertex="1">
          <mxGeometry x="230" y="420" width="140" height="30" as="geometry" />
        </mxCell>
        <mxCell id="mZZ3oU3MAKDqjdPzpFdO-36" value="Name" style="text;html=1;strokeColor=none;fillColor=none;align=center;verticalAlign=middle;whiteSpace=wrap;rounded=0;" parent="1" vertex="1">
          <mxGeometry x="430" y="825" width="60" height="30" as="geometry" />
        </mxCell>
        <mxCell id="mZZ3oU3MAKDqjdPzpFdO-37" value="Point of square" style="text;html=1;strokeColor=none;fillColor=none;align=center;verticalAlign=middle;whiteSpace=wrap;rounded=0;" parent="1" vertex="1">
          <mxGeometry x="90" y="825" width="85" height="30" as="geometry" />
        </mxCell>
        <mxCell id="hOYhqcA-oCMQtf53ZVOD-1" value="" style="endArrow=classic;startArrow=classic;html=1;rounded=0;" parent="1" edge="1">
          <mxGeometry width="50" height="50" relative="1" as="geometry">
            <mxPoint x="220" y="530" as="sourcePoint" />
            <mxPoint x="400" y="530" as="targetPoint" />
          </mxGeometry>
        </mxCell>
        <mxCell id="hOYhqcA-oCMQtf53ZVOD-2" value="" style="endArrow=classic;startArrow=classic;html=1;rounded=0;" parent="1" edge="1">
          <mxGeometry width="50" height="50" relative="1" as="geometry">
            <mxPoint x="220" y="560" as="sourcePoint" />
            <mxPoint x="400" y="560" as="targetPoint" />
          </mxGeometry>
        </mxCell>
        <mxCell id="hOYhqcA-oCMQtf53ZVOD-3" value="" style="endArrow=classic;startArrow=classic;html=1;rounded=0;" parent="1" edge="1">
          <mxGeometry width="50" height="50" relative="1" as="geometry">
            <mxPoint x="220" y="585" as="sourcePoint" />
            <mxPoint x="400" y="585" as="targetPoint" />
          </mxGeometry>
        </mxCell>
        <mxCell id="hOYhqcA-oCMQtf53ZVOD-4" value="" style="endArrow=classic;startArrow=classic;html=1;rounded=0;" parent="1" edge="1">
          <mxGeometry width="50" height="50" relative="1" as="geometry">
            <mxPoint x="220" y="620" as="sourcePoint" />
            <mxPoint x="400" y="620" as="targetPoint" />
          </mxGeometry>
        </mxCell>
        <mxCell id="hOYhqcA-oCMQtf53ZVOD-5" value="" style="endArrow=classic;startArrow=classic;html=1;rounded=0;" parent="1" edge="1">
          <mxGeometry width="50" height="50" relative="1" as="geometry">
            <mxPoint x="220" y="650" as="sourcePoint" />
            <mxPoint x="400" y="650" as="targetPoint" />
          </mxGeometry>
        </mxCell>
      </root>
    </mxGraphModel>
  </diagram>
  <diagram id="cnEJ7bjoybjFlkjssJ6n" name="Page-2">
    <mxGraphModel dx="906" dy="433" grid="1" gridSize="10" guides="1" tooltips="1" connect="1" arrows="1" fold="1" page="1" pageScale="1" pageWidth="827" pageHeight="1169" math="0" shadow="0">
      <root>
        <mxCell id="0" />
        <mxCell id="1" parent="0" />
        <mxCell id="c5jjlS90ONC6z_Dt9k56-1" value="" style="whiteSpace=wrap;html=1;aspect=fixed;" vertex="1" parent="1">
          <mxGeometry x="70" y="50" width="180" height="180" as="geometry" />
        </mxCell>
        <mxCell id="c5jjlS90ONC6z_Dt9k56-2" value="" style="endArrow=none;html=1;rounded=0;entryX=0.75;entryY=0;entryDx=0;entryDy=0;exitX=0.75;exitY=1;exitDx=0;exitDy=0;" edge="1" parent="1" source="c5jjlS90ONC6z_Dt9k56-1" target="c5jjlS90ONC6z_Dt9k56-1">
          <mxGeometry width="50" height="50" relative="1" as="geometry">
            <mxPoint x="190" y="110" as="sourcePoint" />
            <mxPoint x="240" y="60" as="targetPoint" />
          </mxGeometry>
        </mxCell>
        <mxCell id="c5jjlS90ONC6z_Dt9k56-3" value="" style="endArrow=none;html=1;rounded=0;entryX=0.5;entryY=0;entryDx=0;entryDy=0;exitX=0.5;exitY=1;exitDx=0;exitDy=0;" edge="1" parent="1" source="c5jjlS90ONC6z_Dt9k56-1" target="c5jjlS90ONC6z_Dt9k56-1">
          <mxGeometry width="50" height="50" relative="1" as="geometry">
            <mxPoint x="190" y="110" as="sourcePoint" />
            <mxPoint x="240" y="60" as="targetPoint" />
          </mxGeometry>
        </mxCell>
        <mxCell id="c5jjlS90ONC6z_Dt9k56-4" value="" style="endArrow=none;html=1;rounded=0;entryX=0.25;entryY=0;entryDx=0;entryDy=0;exitX=0.25;exitY=1;exitDx=0;exitDy=0;" edge="1" parent="1" source="c5jjlS90ONC6z_Dt9k56-1" target="c5jjlS90ONC6z_Dt9k56-1">
          <mxGeometry width="50" height="50" relative="1" as="geometry">
            <mxPoint x="190" y="110" as="sourcePoint" />
            <mxPoint x="240" y="60" as="targetPoint" />
          </mxGeometry>
        </mxCell>
        <mxCell id="c5jjlS90ONC6z_Dt9k56-5" value="" style="endArrow=none;html=1;rounded=0;exitX=0;exitY=0.25;exitDx=0;exitDy=0;entryX=1;entryY=0.25;entryDx=0;entryDy=0;" edge="1" parent="1" source="c5jjlS90ONC6z_Dt9k56-1" target="c5jjlS90ONC6z_Dt9k56-1">
          <mxGeometry width="50" height="50" relative="1" as="geometry">
            <mxPoint x="190" y="110" as="sourcePoint" />
            <mxPoint x="240" y="60" as="targetPoint" />
          </mxGeometry>
        </mxCell>
        <mxCell id="c5jjlS90ONC6z_Dt9k56-6" value="" style="endArrow=none;html=1;rounded=0;exitX=0;exitY=0.5;exitDx=0;exitDy=0;entryX=1;entryY=0.5;entryDx=0;entryDy=0;" edge="1" parent="1" source="c5jjlS90ONC6z_Dt9k56-1" target="c5jjlS90ONC6z_Dt9k56-1">
          <mxGeometry width="50" height="50" relative="1" as="geometry">
            <mxPoint x="190" y="110" as="sourcePoint" />
            <mxPoint x="240" y="60" as="targetPoint" />
          </mxGeometry>
        </mxCell>
        <mxCell id="c5jjlS90ONC6z_Dt9k56-7" value="" style="endArrow=none;html=1;rounded=0;exitX=0;exitY=0.75;exitDx=0;exitDy=0;entryX=1;entryY=0.75;entryDx=0;entryDy=0;" edge="1" parent="1" source="c5jjlS90ONC6z_Dt9k56-1" target="c5jjlS90ONC6z_Dt9k56-1">
          <mxGeometry width="50" height="50" relative="1" as="geometry">
            <mxPoint x="190" y="110" as="sourcePoint" />
            <mxPoint x="240" y="60" as="targetPoint" />
          </mxGeometry>
        </mxCell>
        <mxCell id="c5jjlS90ONC6z_Dt9k56-8" value="A" style="text;html=1;strokeColor=none;fillColor=none;align=center;verticalAlign=middle;whiteSpace=wrap;rounded=0;" vertex="1" parent="1">
          <mxGeometry x="40" y="20" width="60" height="30" as="geometry" />
        </mxCell>
        <mxCell id="c5jjlS90ONC6z_Dt9k56-9" value="B" style="text;html=1;strokeColor=none;fillColor=none;align=center;verticalAlign=middle;whiteSpace=wrap;rounded=0;" vertex="1" parent="1">
          <mxGeometry x="90" y="20" width="60" height="30" as="geometry" />
        </mxCell>
        <mxCell id="c5jjlS90ONC6z_Dt9k56-10" value="C" style="text;html=1;strokeColor=none;fillColor=none;align=center;verticalAlign=middle;whiteSpace=wrap;rounded=0;" vertex="1" parent="1">
          <mxGeometry x="130" y="20" width="60" height="30" as="geometry" />
        </mxCell>
        <mxCell id="c5jjlS90ONC6z_Dt9k56-11" value="D" style="text;html=1;strokeColor=none;fillColor=none;align=center;verticalAlign=middle;whiteSpace=wrap;rounded=0;" vertex="1" parent="1">
          <mxGeometry x="170" y="20" width="60" height="30" as="geometry" />
        </mxCell>
        <mxCell id="c5jjlS90ONC6z_Dt9k56-12" value="E" style="text;html=1;strokeColor=none;fillColor=none;align=center;verticalAlign=middle;whiteSpace=wrap;rounded=0;" vertex="1" parent="1">
          <mxGeometry x="220" y="20" width="60" height="30" as="geometry" />
        </mxCell>
        <mxCell id="c5jjlS90ONC6z_Dt9k56-13" value="F" style="text;html=1;strokeColor=none;fillColor=none;align=center;verticalAlign=middle;whiteSpace=wrap;rounded=0;" vertex="1" parent="1">
          <mxGeometry x="30" y="40" width="60" height="30" as="geometry" />
        </mxCell>
        <mxCell id="c5jjlS90ONC6z_Dt9k56-14" value="G" style="text;html=1;strokeColor=none;fillColor=none;align=center;verticalAlign=middle;whiteSpace=wrap;rounded=0;" vertex="1" parent="1">
          <mxGeometry x="30" y="80" width="60" height="30" as="geometry" />
        </mxCell>
        <mxCell id="c5jjlS90ONC6z_Dt9k56-15" value="H" style="text;html=1;strokeColor=none;fillColor=none;align=center;verticalAlign=middle;whiteSpace=wrap;rounded=0;" vertex="1" parent="1">
          <mxGeometry x="30" y="125" width="60" height="30" as="geometry" />
        </mxCell>
        <mxCell id="c5jjlS90ONC6z_Dt9k56-16" value="I" style="text;html=1;strokeColor=none;fillColor=none;align=center;verticalAlign=middle;whiteSpace=wrap;rounded=0;" vertex="1" parent="1">
          <mxGeometry x="30" y="170" width="60" height="30" as="geometry" />
        </mxCell>
        <mxCell id="c5jjlS90ONC6z_Dt9k56-17" value="" style="whiteSpace=wrap;html=1;aspect=fixed;" vertex="1" parent="1">
          <mxGeometry x="290" y="50" width="180" height="180" as="geometry" />
        </mxCell>
        <mxCell id="c5jjlS90ONC6z_Dt9k56-18" value="" style="endArrow=none;html=1;rounded=0;entryX=0.75;entryY=0;entryDx=0;entryDy=0;exitX=0.75;exitY=1;exitDx=0;exitDy=0;" edge="1" parent="1" source="c5jjlS90ONC6z_Dt9k56-17" target="c5jjlS90ONC6z_Dt9k56-17">
          <mxGeometry width="50" height="50" relative="1" as="geometry">
            <mxPoint x="410" y="110" as="sourcePoint" />
            <mxPoint x="460" y="60" as="targetPoint" />
          </mxGeometry>
        </mxCell>
        <mxCell id="c5jjlS90ONC6z_Dt9k56-19" value="" style="endArrow=none;html=1;rounded=0;entryX=0.5;entryY=0;entryDx=0;entryDy=0;exitX=0.5;exitY=1;exitDx=0;exitDy=0;" edge="1" parent="1" source="c5jjlS90ONC6z_Dt9k56-17" target="c5jjlS90ONC6z_Dt9k56-17">
          <mxGeometry width="50" height="50" relative="1" as="geometry">
            <mxPoint x="410" y="110" as="sourcePoint" />
            <mxPoint x="460" y="60" as="targetPoint" />
          </mxGeometry>
        </mxCell>
        <mxCell id="c5jjlS90ONC6z_Dt9k56-20" value="" style="endArrow=none;html=1;rounded=0;entryX=0.25;entryY=0;entryDx=0;entryDy=0;exitX=0.25;exitY=1;exitDx=0;exitDy=0;" edge="1" parent="1" source="c5jjlS90ONC6z_Dt9k56-17" target="c5jjlS90ONC6z_Dt9k56-17">
          <mxGeometry width="50" height="50" relative="1" as="geometry">
            <mxPoint x="410" y="110" as="sourcePoint" />
            <mxPoint x="460" y="60" as="targetPoint" />
          </mxGeometry>
        </mxCell>
        <mxCell id="c5jjlS90ONC6z_Dt9k56-21" value="" style="endArrow=none;html=1;rounded=0;exitX=0;exitY=0.25;exitDx=0;exitDy=0;entryX=1;entryY=0.25;entryDx=0;entryDy=0;" edge="1" parent="1" source="c5jjlS90ONC6z_Dt9k56-17" target="c5jjlS90ONC6z_Dt9k56-17">
          <mxGeometry width="50" height="50" relative="1" as="geometry">
            <mxPoint x="410" y="110" as="sourcePoint" />
            <mxPoint x="460" y="60" as="targetPoint" />
          </mxGeometry>
        </mxCell>
        <mxCell id="c5jjlS90ONC6z_Dt9k56-22" value="" style="endArrow=none;html=1;rounded=0;exitX=0;exitY=0.5;exitDx=0;exitDy=0;entryX=1;entryY=0.5;entryDx=0;entryDy=0;" edge="1" parent="1" source="c5jjlS90ONC6z_Dt9k56-17" target="c5jjlS90ONC6z_Dt9k56-17">
          <mxGeometry width="50" height="50" relative="1" as="geometry">
            <mxPoint x="410" y="110" as="sourcePoint" />
            <mxPoint x="460" y="60" as="targetPoint" />
          </mxGeometry>
        </mxCell>
        <mxCell id="c5jjlS90ONC6z_Dt9k56-23" value="" style="endArrow=none;html=1;rounded=0;exitX=0;exitY=0.75;exitDx=0;exitDy=0;entryX=1;entryY=0.75;entryDx=0;entryDy=0;" edge="1" parent="1" source="c5jjlS90ONC6z_Dt9k56-17" target="c5jjlS90ONC6z_Dt9k56-17">
          <mxGeometry width="50" height="50" relative="1" as="geometry">
            <mxPoint x="410" y="110" as="sourcePoint" />
            <mxPoint x="460" y="60" as="targetPoint" />
          </mxGeometry>
        </mxCell>
        <mxCell id="c5jjlS90ONC6z_Dt9k56-24" value="A" style="text;html=1;strokeColor=none;fillColor=none;align=center;verticalAlign=middle;whiteSpace=wrap;rounded=0;" vertex="1" parent="1">
          <mxGeometry x="260" y="20" width="60" height="30" as="geometry" />
        </mxCell>
        <mxCell id="c5jjlS90ONC6z_Dt9k56-25" value="B" style="text;html=1;strokeColor=none;fillColor=none;align=center;verticalAlign=middle;whiteSpace=wrap;rounded=0;" vertex="1" parent="1">
          <mxGeometry x="310" y="20" width="60" height="30" as="geometry" />
        </mxCell>
        <mxCell id="c5jjlS90ONC6z_Dt9k56-26" value="C" style="text;html=1;strokeColor=none;fillColor=none;align=center;verticalAlign=middle;whiteSpace=wrap;rounded=0;" vertex="1" parent="1">
          <mxGeometry x="350" y="20" width="60" height="30" as="geometry" />
        </mxCell>
        <mxCell id="c5jjlS90ONC6z_Dt9k56-27" value="D" style="text;html=1;strokeColor=none;fillColor=none;align=center;verticalAlign=middle;whiteSpace=wrap;rounded=0;" vertex="1" parent="1">
          <mxGeometry x="390" y="20" width="60" height="30" as="geometry" />
        </mxCell>
        <mxCell id="c5jjlS90ONC6z_Dt9k56-28" value="E" style="text;html=1;strokeColor=none;fillColor=none;align=center;verticalAlign=middle;whiteSpace=wrap;rounded=0;" vertex="1" parent="1">
          <mxGeometry x="440" y="20" width="60" height="30" as="geometry" />
        </mxCell>
        <mxCell id="c5jjlS90ONC6z_Dt9k56-29" value="" style="whiteSpace=wrap;html=1;aspect=fixed;" vertex="1" parent="1">
          <mxGeometry x="510" y="50" width="180" height="180" as="geometry" />
        </mxCell>
        <mxCell id="c5jjlS90ONC6z_Dt9k56-30" value="" style="endArrow=none;html=1;rounded=0;entryX=0.75;entryY=0;entryDx=0;entryDy=0;exitX=0.75;exitY=1;exitDx=0;exitDy=0;" edge="1" parent="1" source="c5jjlS90ONC6z_Dt9k56-29" target="c5jjlS90ONC6z_Dt9k56-29">
          <mxGeometry width="50" height="50" relative="1" as="geometry">
            <mxPoint x="630" y="110" as="sourcePoint" />
            <mxPoint x="680" y="60" as="targetPoint" />
          </mxGeometry>
        </mxCell>
        <mxCell id="c5jjlS90ONC6z_Dt9k56-31" value="" style="endArrow=none;html=1;rounded=0;entryX=0.5;entryY=0;entryDx=0;entryDy=0;exitX=0.5;exitY=1;exitDx=0;exitDy=0;" edge="1" parent="1" source="c5jjlS90ONC6z_Dt9k56-29" target="c5jjlS90ONC6z_Dt9k56-29">
          <mxGeometry width="50" height="50" relative="1" as="geometry">
            <mxPoint x="630" y="110" as="sourcePoint" />
            <mxPoint x="680" y="60" as="targetPoint" />
          </mxGeometry>
        </mxCell>
        <mxCell id="c5jjlS90ONC6z_Dt9k56-32" value="" style="endArrow=none;html=1;rounded=0;entryX=0.25;entryY=0;entryDx=0;entryDy=0;exitX=0.25;exitY=1;exitDx=0;exitDy=0;" edge="1" parent="1" source="c5jjlS90ONC6z_Dt9k56-29" target="c5jjlS90ONC6z_Dt9k56-29">
          <mxGeometry width="50" height="50" relative="1" as="geometry">
            <mxPoint x="630" y="110" as="sourcePoint" />
            <mxPoint x="680" y="60" as="targetPoint" />
          </mxGeometry>
        </mxCell>
        <mxCell id="c5jjlS90ONC6z_Dt9k56-33" value="" style="endArrow=none;html=1;rounded=0;exitX=0;exitY=0.25;exitDx=0;exitDy=0;entryX=1;entryY=0.25;entryDx=0;entryDy=0;" edge="1" parent="1" source="c5jjlS90ONC6z_Dt9k56-29" target="c5jjlS90ONC6z_Dt9k56-29">
          <mxGeometry width="50" height="50" relative="1" as="geometry">
            <mxPoint x="630" y="110" as="sourcePoint" />
            <mxPoint x="680" y="60" as="targetPoint" />
          </mxGeometry>
        </mxCell>
        <mxCell id="c5jjlS90ONC6z_Dt9k56-34" value="" style="endArrow=none;html=1;rounded=0;exitX=0;exitY=0.5;exitDx=0;exitDy=0;entryX=1;entryY=0.5;entryDx=0;entryDy=0;" edge="1" parent="1" source="c5jjlS90ONC6z_Dt9k56-29" target="c5jjlS90ONC6z_Dt9k56-29">
          <mxGeometry width="50" height="50" relative="1" as="geometry">
            <mxPoint x="630" y="110" as="sourcePoint" />
            <mxPoint x="680" y="60" as="targetPoint" />
          </mxGeometry>
        </mxCell>
        <mxCell id="c5jjlS90ONC6z_Dt9k56-35" value="" style="endArrow=none;html=1;rounded=0;exitX=0;exitY=0.75;exitDx=0;exitDy=0;entryX=1;entryY=0.75;entryDx=0;entryDy=0;" edge="1" parent="1" source="c5jjlS90ONC6z_Dt9k56-29" target="c5jjlS90ONC6z_Dt9k56-29">
          <mxGeometry width="50" height="50" relative="1" as="geometry">
            <mxPoint x="630" y="110" as="sourcePoint" />
            <mxPoint x="680" y="60" as="targetPoint" />
          </mxGeometry>
        </mxCell>
        <mxCell id="c5jjlS90ONC6z_Dt9k56-36" value="B" style="text;html=1;strokeColor=none;fillColor=none;align=center;verticalAlign=middle;whiteSpace=wrap;rounded=0;" vertex="1" parent="1">
          <mxGeometry x="530" y="20" width="60" height="30" as="geometry" />
        </mxCell>
        <mxCell id="c5jjlS90ONC6z_Dt9k56-37" value="C" style="text;html=1;strokeColor=none;fillColor=none;align=center;verticalAlign=middle;whiteSpace=wrap;rounded=0;" vertex="1" parent="1">
          <mxGeometry x="570" y="20" width="60" height="30" as="geometry" />
        </mxCell>
        <mxCell id="c5jjlS90ONC6z_Dt9k56-38" value="D" style="text;html=1;strokeColor=none;fillColor=none;align=center;verticalAlign=middle;whiteSpace=wrap;rounded=0;" vertex="1" parent="1">
          <mxGeometry x="610" y="20" width="60" height="30" as="geometry" />
        </mxCell>
        <mxCell id="c5jjlS90ONC6z_Dt9k56-39" value="E" style="text;html=1;strokeColor=none;fillColor=none;align=center;verticalAlign=middle;whiteSpace=wrap;rounded=0;" vertex="1" parent="1">
          <mxGeometry x="660" y="20" width="60" height="30" as="geometry" />
        </mxCell>
        <mxCell id="Fpjoe-NBDOH3HcTCh0Ek-1" value="J" style="text;html=1;strokeColor=none;fillColor=none;align=center;verticalAlign=middle;whiteSpace=wrap;rounded=0;" vertex="1" parent="1">
          <mxGeometry x="30" y="210" width="60" height="30" as="geometry" />
        </mxCell>
        <mxCell id="Fpjoe-NBDOH3HcTCh0Ek-2" value="A" style="text;html=1;strokeColor=none;fillColor=none;align=center;verticalAlign=middle;whiteSpace=wrap;rounded=0;" vertex="1" parent="1">
          <mxGeometry x="490" y="20" width="60" height="30" as="geometry" />
        </mxCell>
      </root>
    </mxGraphModel>
  </diagram>
  <diagram id="MBXHkAu6q1TNRxMxLo_Y" name="Page-3">
    <mxGraphModel dx="906" dy="453" grid="1" gridSize="10" guides="1" tooltips="1" connect="1" arrows="1" fold="1" page="1" pageScale="1" pageWidth="827" pageHeight="1169" math="0" shadow="0">
      <root>
        <mxCell id="0" />
        <mxCell id="1" parent="0" />
      </root>
    </mxGraphModel>
  </diagram>
</mxfile>
